STARTFONT 2.1
FONT -sun-helmet-bold-r-normal--24-240-75-75-p-150-adobe-fontspecific
SIZE 24 75 75
FONTBOUNDINGBOX 32 29 -6 -5

STARTPROPERTIES 28
FOUNDRY "sun"
FAMILY_NAME "helmet"
WEIGHT_NAME "bold"
SLANT "r"
SETWIDTH_NAME "normal"
ADD_STYLE_NAME ""
PIXEL_SIZE 25
POINT_SIZE 240
RESOLUTION_X 75
RESOLUTION_Y 75
SPACING "p"
AVERAGE_WIDTH 150
CHARSET_REGISTRY "adobe"
CHARSET_ENCODING "fontspecific"
COPYRIGHT "© 1999 Sun Microsystems, Inc."
RAW_PIXELSIZE 1000
RAW_POINTSIZE 964
RAW_ASCENT 945
RAW_DESCENT 196
RAW_AVERAGE_WIDTH 6034
FACE_NAME "HelmetBoldItalic5"
_XMBDFED_INFO "Edited with xmbdfed 2.4."
WEIGHT 10
X_HEIGHT -2
QUAD_WIDTH 14
DEFAULT_CHAR 4
FONT_DESCENT 5
FONT_ASCENT 24
ENDPROPERTIES

CHARS 202

STARTCHAR char32
ENCODING 32
SWIDTH 28 0
DWIDTH 8 0
BBX 0 0 0 0
BITMAP
ENDCHAR

STARTCHAR char33
ENCODING 33
SWIDTH 32 0
DWIDTH 9 0
BBX 5 18 2 0
BITMAP
F8
F8
F8
F8
F8
F8
F8
F0
70
70
70
00
00
F8
F8
F8
F8
F8
ENDCHAR

STARTCHAR char34
ENCODING 34
SWIDTH 10 0
DWIDTH 13 0
BBX 11 10 1 8
BITMAP
FBE0
FBE0
FBE0
FBE0
FBE0
38E0
79C0
F3C0
E380
8200
ENDCHAR

STARTCHAR char35
ENCODING 35
SWIDTH 13 0
DWIDTH 14 0
BBX 13 18 0 0
BITMAP
0460
0C60
0C60
0C60
0C60
7FF8
0FF8
08C0
18C0
18C0
18C0
FFF0
FFF0
1080
1180
3180
3180
3180
ENDCHAR

STARTCHAR char36
ENCODING 36
SWIDTH 28 0
DWIDTH 18 0
BBX 16 21 0 -2
BITMAP
0180
07E0
1FF8
3FFC
7FFE
7DBE
7DBE
7F80
7FF0
3FFC
1FFE
07FF
01FF
FD9F
7D3F
7FFF
7FFE
3FFC
0FF0
0180
0180
ENDCHAR

STARTCHAR char37
ENCODING 37
SWIDTH 20 0
DWIDTH 26 0
BBX 23 18 0 0
BITMAP
1E0780
7F0700
7F0F00
FF8E00
E39E00
E39C00
E39C00
E3B8F0
E3B9FC
FF73FC
7F778E
3EE78E
1CE70E
01C70E
01C7FE
03C3FC
0383F8
0080F0
ENDCHAR

STARTCHAR char38
ENCODING 38
SWIDTH 31 0
DWIDTH 19 0
BBX 18 18 0 0
BITMAP
07E000
1FF800
1FF800
3FFC00
3E7C00
3F7C00
1FFC00
1FF800
3FF000
7FE780
7FFF00
FDFF00
F8FE00
F8FE00
7FFE00
7FFF00
3FEF80
0F8FC0
ENDCHAR

STARTCHAR char39
ENCODING 39
SWIDTH 25 0
DWIDTH 7 0
BBX 5 10 1 8
BITMAP
18
78
70
E0
E0
F8
F8
F8
F8
F8
ENDCHAR

STARTCHAR char40
ENCODING 40
SWIDTH 35 0
DWIDTH 10 0
BBX 7 23 2 -5
BITMAP
1E
3E
3C
3C
7C
78
78
F8
F8
F8
F8
F8
F8
F8
F8
F8
78
78
7C
7C
3C
3C
1E
ENDCHAR

STARTCHAR char41
ENCODING 41
SWIDTH 35 0
DWIDTH 10 0
BBX 8 23 0 -5
BITMAP
F8
7C
7C
3E
3E
3E
3E
1F
1F
1F
1F
1F
1F
1F
1F
1F
1E
3E
3E
3C
7C
78
F8
ENDCHAR

STARTCHAR char42
ENCODING 42
SWIDTH 3 0
DWIDTH 11 0
BBX 10 10 0 8
BITMAP
0E00
0E00
0E00
FFC0
FFC0
7F80
1F00
3F00
7B80
3100
ENDCHAR

STARTCHAR char43
ENCODING 43
SWIDTH 28 0
DWIDTH 18 0
BBX 14 15 1 0
BITMAP
0380
0380
0380
0380
0380
0380
FFFC
FFFC
FFFC
FFFC
0380
0380
0380
0380
0380
ENDCHAR

STARTCHAR char44
ENCODING 44
SWIDTH 28 0
DWIDTH 8 0
BBX 5 9 1 -4
BITMAP
F8
F8
F8
F8
F8
38
38
F0
E0
ENDCHAR

STARTCHAR char45
ENCODING 45
SWIDTH 35 0
DWIDTH 10 0
BBX 8 4 1 4
BITMAP
FF
FF
FF
FF
ENDCHAR

STARTCHAR char46
ENCODING 46
SWIDTH 28 0
DWIDTH 8 0
BBX 5 5 1 0
BITMAP
F8
F8
F8
F8
F8
ENDCHAR

STARTCHAR char47
ENCODING 47
SWIDTH 6 0
DWIDTH 12 0
BBX 11 18 0 0
BITMAP
03E0
03C0
07C0
07C0
0780
0F80
0F80
0F00
1F00
1F00
1E00
3E00
3E00
3C00
7C00
7C00
7800
F800
ENDCHAR

STARTCHAR char48
ENCODING 48
SWIDTH 28 0
DWIDTH 18 0
BBX 16 17 0 0
BITMAP
07E0
1FF8
3FFC
7FFE
7C3E
F81F
F81F
F81F
F81F
F81F
F81F
FC3F
7C3E
7FFE
3FFC
1FF8
07E0
ENDCHAR

STARTCHAR char49
ENCODING 49
SWIDTH 28 0
DWIDTH 18 0
BBX 9 17 3 0
BITMAP
0780
0F80
0F80
FF80
FF80
FF80
FF80
0F80
0F80
0F80
0F80
0F80
0F80
0F80
0F80
0F80
0F80
ENDCHAR

STARTCHAR char50
ENCODING 50
SWIDTH 28 0
DWIDTH 18 0
BBX 14 17 1 0
BITMAP
0FC0
3FF0
7FF8
7FFC
F8FC
F87C
F07C
00F8
03F8
07F0
1FE0
3F80
7F00
7FFC
FFFC
FFFC
FFFC
ENDCHAR

STARTCHAR char51
ENCODING 51
SWIDTH 28 0
DWIDTH 18 0
BBX 14 17 1 0
BITMAP
0FC0
3FF0
7FF8
7FF8
7878
F878
03F8
03F0
03F8
03FC
F87C
F87C
F87C
FFFC
7FF8
3FF0
0FC0
ENDCHAR

STARTCHAR char52
ENCODING 52
SWIDTH 28 0
DWIDTH 18 0
BBX 15 17 1 0
BITMAP
01F0
03F0
07F0
0FF0
1FF0
3DF0
7DF0
79F0
F1F0
FFFE
FFFE
FFFE
FFFE
01F0
01F0
01F0
01F0
ENDCHAR

STARTCHAR char53
ENCODING 53
SWIDTH 28 0
DWIDTH 18 0
BBX 14 17 1 0
BITMAP
3FF8
3FF8
3FF8
3FF8
7C00
7FE0
7FF0
7FF8
7FFC
F87C
007C
007C
F87C
FFF8
7FF8
3FF0
0FC0
ENDCHAR

STARTCHAR char54
ENCODING 54
SWIDTH 28 0
DWIDTH 18 0
BBX 14 18 1 0
BITMAP
07C0
1FF0
3FF8
7FF8
7C7C
7800
FBE0
FFF0
FFF8
FFF8
F87C
F87C
F87C
787C
7FF8
3FF8
1FF0
07C0
ENDCHAR

STARTCHAR char55
ENCODING 55
SWIDTH 28 0
DWIDTH 18 0
BBX 14 17 1 0
BITMAP
FFFC
FFFC
FFFC
FFFC
00F8
01F0
03F0
03E0
07C0
07C0
0780
0F80
0F80
0F00
1F00
1F00
1F00
ENDCHAR

STARTCHAR char56
ENCODING 56
SWIDTH 28 0
DWIDTH 18 0
BBX 16 18 0 0
BITMAP
0FF0
1FFC
3FFC
7FFE
7C3E
7C1E
7C3E
7EFC
3FFC
1FFE
7FFE
F81F
F81F
FC3F
FFFF
7FFE
3FFC
0FF0
ENDCHAR

STARTCHAR char57
ENCODING 57
SWIDTH 28 0
DWIDTH 18 0
BBX 15 17 0 0
BITMAP
0FE0
3FF0
7FF8
7FFC
FC3E
F83E
F83E
FC7E
7FFE
7FFE
3FFE
0FBE
003C
7FFC
7FF8
3FF0
0FE0
ENDCHAR

STARTCHAR char58
ENCODING 58
SWIDTH 32 0
DWIDTH 9 0
BBX 5 13 2 0
BITMAP
F8
F8
F8
F8
F8
00
00
00
F8
F8
F8
F8
F8
ENDCHAR

STARTCHAR char59
ENCODING 59
SWIDTH 32 0
DWIDTH 9 0
BBX 5 17 2 -4
BITMAP
F8
F8
F8
F8
F8
00
00
00
F8
F8
F8
F8
F8
38
38
F0
E0
ENDCHAR

STARTCHAR char60
ENCODING 60
SWIDTH 17 0
DWIDTH 15 0
BBX 12 13 1 0
BITMAP
0010
0030
01E0
0780
1E00
7000
C000
F000
3C00
0F00
03C0
0070
0010
ENDCHAR

STARTCHAR char61
ENCODING 61
SWIDTH 28 0
DWIDTH 18 0
BBX 16 9 0 3
BITMAP
FFFF
FFFF
FFFF
FFFF
0000
FFFF
FFFF
FFFF
FFFF
ENDCHAR

STARTCHAR char62
ENCODING 62
SWIDTH 17 0
DWIDTH 15 0
BBX 13 13 1 0
BITMAP
8000
E000
7800
0E00
0380
00F0
0038
0078
01C0
0F00
3C00
F000
8000
ENDCHAR

STARTCHAR char63
ENCODING 63
SWIDTH 21 0
DWIDTH 16 0
BBX 13 18 1 0
BITMAP
0FC0
3FF0
7FF8
7FF8
FCF8
F8F8
00F8
03F8
07F0
0FC0
0F80
0000
0000
0F80
0F80
0F80
0F80
0F80
ENDCHAR

STARTCHAR char64
ENCODING 64
SWIDTH 24 0
DWIDTH 27 0
BBX 18 19 4 0
BITMAP
01F000
07F800
1C0E00
300700
600180
63ED80
C7FCC0
CE1CC0
CC18C0
DC18C0
D818C0
D83180
D83100
DC7300
4FFE00
679980
380300
1FFC00
07F000
ENDCHAR

STARTCHAR char65
ENCODING 65
SWIDTH 31 0
DWIDTH 19 0
BBX 19 18 -1 0
BITMAP
01F800
03F800
03F800
03FC00
07FC00
07FC00
07FE00
0FBE00
0FBE00
1F9F00
1F1F00
1F1F00
3FFF80
3FFF80
3FFFC0
7FFFC0
7E07C0
7C07E0
ENDCHAR

STARTCHAR char66
ENCODING 66
SWIDTH 31 0
DWIDTH 19 0
BBX 16 18 1 0
BITMAP
FFF0
FFFC
FFFC
FFFE
F83E
F83E
F83E
FFFC
FFF8
FFFE
FFFF
F83F
F81F
F83F
FFFF
FFFE
FFFC
FFF8
ENDCHAR

STARTCHAR char67
ENCODING 67
SWIDTH 35 0
DWIDTH 20 0
BBX 17 18 1 0
BITMAP
07E000
0FF800
1FFC00
3FFE00
7E3F00
7C1F00
F81F00
F80000
F80000
F80000
F80000
F81F80
7C1F00
7E3F00
3FFE00
1FFE00
0FF800
03F000
ENDCHAR

STARTCHAR char68
ENCODING 68
SWIDTH 35 0
DWIDTH 20 0
BBX 16 18 1 0
BITMAP
FFE0
FFF8
FFFC
FFFE
F9FE
F83E
F81F
F81F
F81F
F81F
F81F
F81F
F83F
F87E
FFFE
FFFC
FFF8
FFE0
ENDCHAR

STARTCHAR char69
ENCODING 69
SWIDTH 28 0
DWIDTH 18 0
BBX 16 18 1 0
BITMAP
FFFE
FFFE
FFFE
FFFE
FC00
FC00
FC00
FFFC
FFFC
FFFC
FFFC
F800
F800
FFFF
FFFF
FFFF
FFFF
FFFF
ENDCHAR

STARTCHAR char70
ENCODING 70
SWIDTH 24 0
DWIDTH 17 0
BBX 14 18 1 0
BITMAP
FFFC
FFFC
FFFC
FFFC
F800
F800
F800
F800
FFF8
FFF8
FFF8
FFF8
F800
F800
F800
F800
F800
F800
ENDCHAR

STARTCHAR char71
ENCODING 71
SWIDTH 2 0
DWIDTH 21 0
BBX 17 18 1 0
BITMAP
07F000
0FFC00
1FFE00
3FFE00
7E3F00
7C1F00
F80E00
F80000
F83F80
F83F80
F83F80
F83F80
7C0F80
7E1F80
3FFF80
3FFF80
1FFF80
07E380
ENDCHAR

STARTCHAR char72
ENCODING 72
SWIDTH 35 0
DWIDTH 20 0
BBX 16 18 1 0
BITMAP
F81F
F81F
F81F
F81F
F81F
F81F
FFFF
FFFF
FFFF
FFFF
FFFF
F81F
F81F
F81F
F81F
F81F
F81F
F81F
ENDCHAR

STARTCHAR char73
ENCODING 73
SWIDTH 28 0
DWIDTH 8 0
BBX 5 18 2 0
BITMAP
F8
F8
F8
F8
F8
F8
F8
F8
F8
F8
F8
F8
F8
F8
F8
F8
F8
F8
ENDCHAR

STARTCHAR char74
ENCODING 74
SWIDTH 17 0
DWIDTH 15 0
BBX 13 18 0 0
BITMAP
00F8
00F8
00F8
00F8
00F8
00F8
00F8
00F8
00F8
00F8
F8F8
F8F8
F8F8
FFF8
7FF8
7FF0
3FE0
0F80
ENDCHAR

STARTCHAR char75
ENCODING 75
SWIDTH 35 0
DWIDTH 20 0
BBX 18 18 1 0
BITMAP
F83F80
F87F00
F8FE00
F8FC00
F9F800
FBF800
FFF000
FFE000
FFF000
FFF000
FFF800
FFFC00
FCFC00
F87E00
F87F00
F83F00
F83F80
F81FC0
ENDCHAR

STARTCHAR char76
ENCODING 76
SWIDTH 21 0
DWIDTH 16 0
BBX 14 18 1 0
BITMAP
F800
F800
F800
F800
F800
F800
F800
F800
F800
F800
F800
F800
F800
FFFC
FFFC
FFFC
FFFC
FFFC
ENDCHAR

STARTCHAR char77
ENCODING 77
SWIDTH 9 0
DWIDTH 23 0
BBX 19 18 1 0
BITMAP
FE0FE0
FF0FE0
FF1FE0
FF1FE0
FF1FE0
FF9FE0
FFBFE0
FFBFE0
FFBFE0
FBBFE0
FBFBE0
FBFBE0
FBFBE0
FBFBE0
F9F3E0
F9F3E0
F9F3E0
F9F3E0
ENDCHAR

STARTCHAR char78
ENCODING 78
SWIDTH 35 0
DWIDTH 20 0
BBX 16 18 1 0
BITMAP
F81F
FC1F
FE1F
FE1F
FF1F
FF1F
FF9F
FFDF
FFDF
FBFF
FBFF
F9FF
F9FF
F8FF
F87F
F87F
F83F
F81F
ENDCHAR

STARTCHAR char79
ENCODING 79
SWIDTH 2 0
DWIDTH 21 0
BBX 17 18 1 0
BITMAP
07F000
0FF800
1FFC00
3FFE00
7E3F00
7C1F00
F80F80
F80F80
F80F80
F80F80
F80F80
F80F80
7C1F00
7E3F00
3FFE00
1FFC00
0FF800
07E000
ENDCHAR

STARTCHAR char80
ENCODING 80
SWIDTH 28 0
DWIDTH 18 0
BBX 16 18 1 0
BITMAP
FFF0
FFFC
FFFE
FFFE
F83F
F81F
F81F
F81F
F83F
FFFE
FFFE
FFF8
FFE0
F800
F800
F800
F800
F800
ENDCHAR

STARTCHAR char81
ENCODING 81
SWIDTH 2 0
DWIDTH 21 0
BBX 18 20 1 -2
BITMAP
07F000
0FF800
1FFC00
3FFE00
7E3F00
7C1F00
F80F80
F80F80
F80F80
F80F80
F82F80
F87F80
FCFF00
7E7F00
3FFE00
1FFE00
0FFF80
03E780
000300
000200
ENDCHAR

STARTCHAR char82
ENCODING 82
SWIDTH 31 0
DWIDTH 19 0
BBX 17 18 1 0
BITMAP
FFF800
FFFE00
FFFE00
FFFF00
F83F00
F81F00
F81F00
F83E00
FFFE00
FFFC00
FFFC00
FFFE00
FC3F00
FC3F00
FC1F00
FC1F00
FC1F00
FC1F80
ENDCHAR

STARTCHAR char83
ENCODING 83
SWIDTH 28 0
DWIDTH 18 0
BBX 16 18 0 0
BITMAP
07F0
1FF8
3FFC
7FFE
7E7E
7C3E
7F80
3FF0
3FFC
1FFE
03FF
007F
FC1F
7C3F
7FFE
3FFE
1FFC
07E0
ENDCHAR

STARTCHAR char84
ENCODING 84
SWIDTH 21 0
DWIDTH 16 0
BBX 15 18 0 0
BITMAP
FFFE
FFFE
FFFE
FFFE
FFFE
07C0
07C0
07C0
07C0
07C0
07C0
07C0
07C0
07C0
07C0
07C0
07C0
07C0
ENDCHAR

STARTCHAR char85
ENCODING 85
SWIDTH 35 0
DWIDTH 20 0
BBX 16 18 1 0
BITMAP
F81F
F81F
F81F
F81F
F81F
F81F
F81F
F81F
F81F
F81F
F81F
F81F
F83F
FC3F
7FFE
7FFE
3FFC
07E0
ENDCHAR

STARTCHAR char86
ENCODING 86
SWIDTH 24 0
DWIDTH 17 0
BBX 16 18 0 0
BITMAP
F81F
F83F
FC3F
7C3E
7C3E
7C7E
7E7C
3E7C
3E7C
3EF8
1FF8
1FF8
1FF0
1FF0
0FF0
0FF0
0FE0
07E0
ENDCHAR

STARTCHAR char87
ENCODING 87
SWIDTH 16 0
DWIDTH 25 0
BBX 24 18 -1 0
BITMAP
FC3E1F
7C3E1F
7C3E3F
7C7E3F
3E7F3E
3E7F3E
3E7F3E
3E7F7E
1EF77C
1FF7FC
1FF7FC
1FF7F8
0FE7F8
0FE7F8
0FE3F8
0FE3F0
07E3F0
07C3F0
ENDCHAR

STARTCHAR char88
ENCODING 88
SWIDTH 35 0
DWIDTH 20 0
BBX 19 18 -1 0
BITMAP
7E0FE0
3F0FC0
3F1FC0
1F9F80
0FBF00
0FFF00
07FE00
03FC00
03F800
03FC00
07FC00
07FE00
0FFF00
1FBF00
3F9F80
3F1FC0
7F0FC0
7E0FE0
ENDCHAR

STARTCHAR char89
ENCODING 89
SWIDTH 28 0
DWIDTH 18 0
BBX 17 18 0 0
BITMAP
FC1F80
FC1F80
7E1F00
3E3F00
3F3E00
1F7E00
1FFC00
0FF800
0FF800
07F000
07F000
03E000
03E000
03E000
03E000
03E000
03E000
03E000
ENDCHAR

STARTCHAR char90
ENCODING 90
SWIDTH 24 0
DWIDTH 17 0
BBX 16 18 0 0
BITMAP
FFFF
FFFF
FFFF
FFFF
FFFF
00FE
01FC
03F8
07F0
0FE0
1FC0
3F80
7F00
FFFF
FFFF
FFFF
FFFF
FFFF
ENDCHAR

STARTCHAR char91
ENCODING 91
SWIDTH 3 0
DWIDTH 11 0
BBX 9 23 2 -5
BITMAP
FF80
FF80
FF80
FF80
F800
F800
F800
F800
F800
F800
F800
F800
F800
F800
F800
F800
F800
F800
F800
FF80
FF80
FF80
FF80
ENDCHAR

STARTCHAR char92
ENCODING 92
SWIDTH 25 0
DWIDTH 7 0
BBX 7 18 0 0
BITMAP
C0
C0
40
40
60
60
20
30
30
10
18
18
08
0C
0C
04
06
06
ENDCHAR

STARTCHAR char93
ENCODING 93
SWIDTH 3 0
DWIDTH 11 0
BBX 8 23 0 -5
BITMAP
FF
FF
FF
FF
1F
1F
1F
1F
1F
1F
1F
1F
1F
1F
1F
1F
1F
1F
1F
FF
FF
FF
FF
ENDCHAR

STARTCHAR char94
ENCODING 94
SWIDTH 0 0
DWIDTH 0 0
BBX 10 4 -5 19
BITMAP
3F00
7F00
7F80
F3C0
ENDCHAR

STARTCHAR char95
ENCODING 95
SWIDTH 17 0
DWIDTH 15 0
BBX 14 1 0 -3
BITMAP
FFFC
ENDCHAR

STARTCHAR char96
ENCODING 96
SWIDTH 0 0
DWIDTH 0 0
BBX 7 4 -5 14
BITMAP
7C
7C
3E
1E
ENDCHAR

STARTCHAR char97
ENCODING 97
SWIDTH 21 0
DWIDTH 16 0
BBX 14 13 0 0
BITMAP
0FE0
3FF8
7FF8
7C7C
7C7C
07FC
3FFC
7F7C
FC7C
FF7C
FFFC
7FFC
3E7C
ENDCHAR

STARTCHAR char98
ENCODING 98
SWIDTH 24 0
DWIDTH 17 0
BBX 14 18 1 0
BITMAP
F800
F800
F800
F800
F800
FBE0
FFF0
FFF8
FFFC
F87C
F87C
F87C
F87C
F87C
FFF8
FFF8
FFF0
F9E0
ENDCHAR

STARTCHAR char99
ENCODING 99
SWIDTH 21 0
DWIDTH 16 0
BBX 14 13 0 0
BITMAP
0FC0
1FF0
3FF8
7FFC
FC7C
F800
F800
F800
FC7C
7FFC
7FF8
3FF0
0FC0
ENDCHAR

STARTCHAR char100
ENCODING 100
SWIDTH 24 0
DWIDTH 17 0
BBX 14 18 0 0
BITMAP
003C
003C
003C
003C
003C
1F3C
3FFC
7FFC
7FFC
FC7C
F87C
F87C
F87C
FC7C
7FFC
7FFC
3FFC
0F7C
ENDCHAR

STARTCHAR char101
ENCODING 101
SWIDTH 21 0
DWIDTH 16 0
BBX 15 13 0 0
BITMAP
07C0
1FF0
3FF8
7FFC
787C
FFFC
FFFE
FFFE
7800
7FFC
3FFC
1FF8
0FE0
ENDCHAR

STARTCHAR char102
ENCODING 102
SWIDTH 35 0
DWIDTH 10 0
BBX 9 18 0 0
BITMAP
0680
1F80
3F80
3F80
3E00
FF80
FF80
FF80
FF80
3E00
3E00
3E00
3E00
3E00
3E00
3E00
3E00
3E00
ENDCHAR

STARTCHAR char103
ENCODING 103
SWIDTH 24 0
DWIDTH 17 0
BBX 14 17 0 -4
BITMAP
0F7C
3FFC
7FFC
FFFC
FC7C
F87C
F87C
F87C
FFFC
7FFC
3FFC
1F7C
007C
7C7C
7FF8
3FF0
0FC0
ENDCHAR

STARTCHAR char104
ENCODING 104
SWIDTH 24 0
DWIDTH 17 0
BBX 14 18 1 0
BITMAP
F800
F800
F800
F800
F800
F9F0
FFF8
FFFC
FFFC
FCFC
F87C
F87C
F87C
F87C
F87C
F87C
F87C
F87C
ENDCHAR

STARTCHAR char105
ENCODING 105
SWIDTH 28 0
DWIDTH 8 0
BBX 5 18 1 0
BITMAP
F8
F8
F8
F8
00
F8
F8
F8
F8
F8
F8
F8
F8
F8
F8
F8
F8
F8
ENDCHAR

STARTCHAR char106
ENCODING 106
SWIDTH 28 0
DWIDTH 8 0
BBX 7 22 -1 -4
BITMAP
3E
3E
3E
3E
00
3E
3E
3E
3E
3E
3E
3E
3E
3E
3E
3E
3E
3E
FE
FE
FC
F8
ENDCHAR

STARTCHAR char107
ENCODING 107
SWIDTH 21 0
DWIDTH 16 0
BBX 15 18 1 0
BITMAP
F800
F800
F800
F800
F800
F8FC
F9F8
F9F0
FBE0
FFC0
FF80
FFC0
FFE0
FFF0
F9F0
F9F8
F8FC
F8FC
ENDCHAR

STARTCHAR char108
ENCODING 108
SWIDTH 28 0
DWIDTH 8 0
BBX 5 18 1 0
BITMAP
F8
F8
F8
F8
F8
F8
F8
F8
F8
F8
F8
F8
F8
F8
F8
F8
F8
F8
ENDCHAR

STARTCHAR char109
ENCODING 109
SWIDTH 16 0
DWIDTH 25 0
BBX 21 13 1 0
BITMAP
FBE3E0
FFF7F0
FFFFF8
FFFFF8
F8F8F8
F8F8F8
F8F8F8
F8F8F8
F8F8F8
F8F8F8
F8F8F8
F8F8F8
F8F8F8
ENDCHAR

STARTCHAR char110
ENCODING 110
SWIDTH 24 0
DWIDTH 17 0
BBX 14 13 1 0
BITMAP
F9E0
FFF8
FFFC
FFFC
FCFC
F87C
F87C
F87C
F87C
F87C
F87C
F87C
F87C
ENDCHAR

STARTCHAR char111
ENCODING 111
SWIDTH 21 0
DWIDTH 16 0
BBX 15 13 0 0
BITMAP
0FE0
1FF0
7FFC
7FFC
FC7E
F83E
F83E
F83E
FC7E
7FFC
7FFC
1FF0
07E0
ENDCHAR

STARTCHAR char112
ENCODING 112
SWIDTH 24 0
DWIDTH 17 0
BBX 14 17 1 -4
BITMAP
FBE0
FFF0
FFF8
FFF8
FC7C
F87C
F87C
F87C
F87C
FFF8
FFF8
FFF0
FBE0
F800
F800
F800
F800
ENDCHAR

STARTCHAR char113
ENCODING 113
SWIDTH 24 0
DWIDTH 17 0
BBX 15 17 0 -4
BITMAP
1F3E
3FFE
7FFE
7FFE
FC7E
F83E
F83E
F83E
FC7E
7FFE
7FFE
3FBE
1F3E
003E
003E
003E
003E
ENDCHAR

STARTCHAR char114
ENCODING 114
SWIDTH 6 0
DWIDTH 12 0
BBX 11 13 1 0
BITMAP
F9C0
FFC0
FFC0
FFC0
FE20
FC00
F800
F800
F800
F800
F800
F800
F800
ENDCHAR

STARTCHAR char115
ENCODING 115
SWIDTH 17 0
DWIDTH 15 0
BBX 13 13 0 0
BITMAP
1FC0
7FE0
FFF0
F8F8
FE00
FFE0
7FF0
1FF8
01F8
FBF8
7FF0
7FF0
1FC0
ENDCHAR

STARTCHAR char116
ENCODING 116
SWIDTH 35 0
DWIDTH 10 0
BBX 9 17 0 0
BITMAP
3E00
3E00
3E00
3E00
FF80
FF80
FF80
FF80
3E00
3E00
3E00
3E00
3E00
3F80
3F80
1F80
0F80
ENDCHAR

STARTCHAR char117
ENCODING 117
SWIDTH 24 0
DWIDTH 17 0
BBX 14 13 1 0
BITMAP
F87C
F87C
F87C
F87C
F87C
F87C
F87C
F87C
F8FC
FFFC
7FFC
7FFC
1E7C
ENDCHAR

STARTCHAR char118
ENCODING 118
SWIDTH 17 0
DWIDTH 15 0
BBX 14 13 0 0
BITMAP
F87C
F8F8
F8F8
7CF8
7DF0
7DF0
3DF0
3FE0
3FE0
1FE0
1FC0
1FC0
0FC0
ENDCHAR

STARTCHAR char119
ENCODING 119
SWIDTH 9 0
DWIDTH 23 0
BBX 22 13 -1 0
BITMAP
7C7C7C
7C7C7C
7C7C7C
3EFEF8
3EFEF8
3EFEF8
3EEEF0
1FEFF0
1FEFF0
1FCFF0
0FC7E0
0FC7E0
0FC7E0
ENDCHAR

STARTCHAR char120
ENCODING 120
SWIDTH 17 0
DWIDTH 15 0
BBX 14 13 0 0
BITMAP
7CFC
7CF8
3FF0
3FF0
1FE0
0FC0
0FC0
1FC0
1FE0
3FF0
7FF8
FCF8
F8FC
ENDCHAR

STARTCHAR char121
ENCODING 121
SWIDTH 17 0
DWIDTH 15 0
BBX 14 17 0 -4
BITMAP
F87C
F87C
7CF8
7CF8
7CF8
3CF0
3FF0
3FF0
1FE0
1FE0
1FE0
0FC0
0FC0
7F80
7F80
7F00
7E00
ENDCHAR

STARTCHAR char122
ENCODING 122
SWIDTH 13 0
DWIDTH 14 0
BBX 13 13 0 0
BITMAP
7FF0
7FF0
7FF0
7FF0
07F0
0FE0
1FC0
3F00
7E00
FFF8
FFF8
FFF8
FFF8
ENDCHAR

STARTCHAR char123
ENCODING 123
SWIDTH 32 0
DWIDTH 9 0
BBX 6 23 1 -5
BITMAP
1C
3C
30
30
30
30
30
30
30
30
60
C0
60
30
30
30
30
30
30
30
30
3C
1C
ENDCHAR

STARTCHAR char124
ENCODING 124
SWIDTH 25 0
DWIDTH 7 0
BBX 2 18 2 0
BITMAP
C0
C0
C0
C0
C0
C0
C0
C0
C0
C0
C0
C0
C0
C0
C0
C0
C0
C0
ENDCHAR

STARTCHAR char125
ENCODING 125
SWIDTH 32 0
DWIDTH 9 0
BBX 6 23 1 -5
BITMAP
E0
F0
30
30
30
30
30
30
30
38
1C
0C
18
18
30
30
30
30
30
30
30
F0
E0
ENDCHAR

STARTCHAR char126
ENCODING 126
SWIDTH 0 0
DWIDTH 0 0
BBX 10 4 -5 19
BITMAP
39C0
7FC0
FF80
E700
ENDCHAR

STARTCHAR char128
ENCODING 128
SWIDTH 35 0
DWIDTH 20 0
BBX 20 18 -2 0
BITMAP
007E00
01FF80
03FFC0
07FFE0
0FC7E0
0F83F0
1F81F0
7FFC00
1F0000
7FFC00
1F0000
1F81F0
0F83F0
0FC7F0
07FFE0
03FFC0
01FF80
007E00
ENDCHAR

STARTCHAR char130
ENCODING 130
SWIDTH 25 0
DWIDTH 7 0
BBX 5 9 1 -4
BITMAP
F8
F8
F8
F8
F8
38
38
F0
E0
ENDCHAR

STARTCHAR char131
ENCODING 131
SWIDTH 0 0
DWIDTH 0 0
BBX 10 4 -5 19
BITMAP
3F00
7F00
7F80
F3C0
ENDCHAR

STARTCHAR char132
ENCODING 132
SWIDTH 10 0
DWIDTH 13 0
BBX 10 9 1 -4
BITMAP
FFC0
FFC0
F7C0
F7C0
F7C0
31C0
7380
F780
E600
ENDCHAR

STARTCHAR char133
ENCODING 133
SWIDTH 24 0
DWIDTH 27 0
BBX 19 4 3 0
BITMAP
E0E0E0
E0E0E0
E0E0E0
E0E0E0
ENDCHAR

STARTCHAR char134
ENCODING 134
SWIDTH 17 0
DWIDTH 15 0
BBX 14 22 0 -4
BITMAP
0F80
0F80
0F80
0F80
0F80
FFFC
FFFC
FFFC
FFFC
0F80
0F80
0F80
0F80
0F80
0F80
0F80
0F80
0F80
0F80
0F80
0F80
0F80
ENDCHAR

STARTCHAR char136
ENCODING 136
SWIDTH 0 0
DWIDTH 0 0
BBX 10 4 -5 14
BITMAP
1E00
3F00
7F80
F3C0
ENDCHAR

STARTCHAR char138
ENCODING 138
SWIDTH 16 0
DWIDTH 25 0
BBX 0 0 0 0
BITMAP
ENDCHAR

STARTCHAR char139
ENCODING 139
SWIDTH 32 0
DWIDTH 9 0
BBX 4 8 2 3
BITMAP
10
30
70
C0
C0
60
30
10
ENDCHAR

STARTCHAR char140
ENCODING 140
SWIDTH 31 0
DWIDTH 29 0
BBX 26 18 0 0
BITMAP
03F7FFC0
0FFFFFC0
1FFFFFC0
3FFFFFC0
7F1FFFC0
7E0FC000
FC0FC000
F807FF80
F807FF80
F807FF80
F807FF80
FC0FC000
7E0FC000
7F1FFFC0
3FFFFFC0
1FFFFFC0
0FFFFFC0
03EFFFC0
ENDCHAR

STARTCHAR char141
ENCODING 141
SWIDTH 16 0
DWIDTH 25 0
BBX 0 0 0 0
BITMAP
ENDCHAR

STARTCHAR char145
ENCODING 145
SWIDTH 28 0
DWIDTH 8 0
BBX 5 10 1 8
BITMAP
18
78
70
E0
E0
F8
F8
F8
F8
F8
ENDCHAR

STARTCHAR char146
ENCODING 146
SWIDTH 28 0
DWIDTH 8 0
BBX 5 10 1 8
BITMAP
F8
F8
F8
F8
F8
38
38
70
F0
C0
ENDCHAR

STARTCHAR char147
ENCODING 147
SWIDTH 10 0
DWIDTH 13 0
BBX 11 9 1 9
BITMAP
1860
79E0
71C0
E380
FBE0
FBE0
FBE0
FBE0
FBE0
ENDCHAR

STARTCHAR char148
ENCODING 148
SWIDTH 10 0
DWIDTH 13 0
BBX 11 10 1 8
BITMAP
FBE0
FBE0
FBE0
FBE0
FBE0
38E0
79C0
F3C0
E380
8200
ENDCHAR

STARTCHAR char149
ENCODING 149
SWIDTH 32 0
DWIDTH 9 0
BBX 7 6 1 6
BITMAP
38
7C
FE
FE
FE
38
ENDCHAR

STARTCHAR char150
ENCODING 150
SWIDTH 28 0
DWIDTH 18 0
BBX 14 4 1 4
BITMAP
FFFC
FFFC
FFFC
FFFC
ENDCHAR

STARTCHAR char151
ENCODING 151
SWIDTH 28 0
DWIDTH 18 0
BBX 16 4 0 5
BITMAP
FFFF
FFFF
FFFF
FFFF
ENDCHAR

STARTCHAR char152
ENCODING 152
SWIDTH 0 0
DWIDTH 0 0
BBX 9 4 -5 14
BITMAP
3980
7F80
FF80
E700
ENDCHAR

STARTCHAR char153
ENCODING 153
SWIDTH 6 0
DWIDTH 22 0
BBX 20 10 0 7
BITMAP
FFE070
CB6060
9B70A0
1870E0
1858E0
185960
184D60
184E60
184660
3CE2F0
ENDCHAR

STARTCHAR char155
ENCODING 155
SWIDTH 32 0
DWIDTH 9 0
BBX 4 8 2 3
BITMAP
80
C0
70
30
30
70
C0
80
ENDCHAR

STARTCHAR char156
ENCODING 156
SWIDTH 16 0
DWIDTH 25 0
BBX 23 13 0 0
BITMAP
0FC0E0
1FFFF0
3FFFF8
7EFFFC
FC7C3C
F87FFE
F87FFE
F87FFE
F87C00
7FFE7C
7FFFFC
3FFFF8
0FC7E0
ENDCHAR

STARTCHAR char157
ENCODING 157
SWIDTH 16 0
DWIDTH 25 0
BBX 0 0 0 0
BITMAP
ENDCHAR

STARTCHAR char159
ENCODING 159
SWIDTH 28 0
DWIDTH 18 0
BBX 17 23 0 0
BITMAP
3E7C00
3E7C00
3E7C00
3E7C00
000000
FC0F80
FC1F80
7E1F00
7E3F00
3F3E00
3F7E00
1F7C00
1FFC00
0FF800
0FF800
07F000
07F000
07F000
07F000
07F000
07F000
07F000
07F000
ENDCHAR

STARTCHAR char160
ENCODING 160
SWIDTH 28 0
DWIDTH 8 0
BBX 0 0 0 0
BITMAP
ENDCHAR

STARTCHAR char161
ENCODING 161
SWIDTH 32 0
DWIDTH 9 0
BBX 5 18 1 0
BITMAP
F8
F8
F8
F8
F8
00
00
70
70
70
70
F8
F8
F8
F8
F8
F8
F8
ENDCHAR

STARTCHAR char162
ENCODING 162
SWIDTH 21 0
DWIDTH 16 0
BBX 14 18 0 -3
BITMAP
0300
0300
0FC0
3FF0
3FF8
7DFC
F97C
FB00
FB00
FA00
FA7C
7EFC
7FF8
3FF8
1FE0
0300
0300
0300
ENDCHAR

STARTCHAR char163
ENCODING 163
SWIDTH 21 0
DWIDTH 16 0
BBX 14 18 1 0
BITMAP
0FC0
3FF0
7FF8
7FF8
7E7C
FC7C
7E00
FF80
FF80
FF80
FF80
1F00
1F00
3E08
7FF8
FFFC
FFFC
61F8
ENDCHAR

STARTCHAR char164
ENCODING 164
SWIDTH 0 0
DWIDTH 0 0
BBX 7 4 -2 19
BITMAP
7C
F8
F8
F0
ENDCHAR

STARTCHAR char165
ENCODING 165
SWIDTH 0 0
DWIDTH 0 0
BBX 10 4 -5 19
BITMAP
F3C0
7F80
3F80
3F00
ENDCHAR

STARTCHAR char166
ENCODING 166
SWIDTH 16 0
DWIDTH 25 0
BBX 0 0 0 0
BITMAP
ENDCHAR

STARTCHAR char167
ENCODING 167
SWIDTH 24 0
DWIDTH 17 0
BBX 15 23 0 -5
BITMAP
07C0
1FF0
1FF8
3FF8
3E7C
3E00
1F80
1FF0
7FFC
7FFE
787E
7C3E
7FBE
3FFE
1FFC
07F8
00FC
007C
3E7C
3FFC
1FF8
0FF0
07E0
ENDCHAR

STARTCHAR char168
ENCODING 168
SWIDTH 0 0
DWIDTH 0 0
BBX 12 4 -6 14
BITMAP
F9F0
F9F0
F9F0
F9F0
ENDCHAR

STARTCHAR char169
ENCODING 169
SWIDTH 35 0
DWIDTH 20 0
BBX 18 16 0 0
BITMAP
03F000
0C0C00
100200
21F900
67B980
460880
CE08C0
CC00C0
CC00C0
CC00C0
460080
671180
21E100
100200
0C0C00
03F000
ENDCHAR

STARTCHAR char170
ENCODING 170
SWIDTH 0 0
DWIDTH 0 0
BBX 12 4 -6 19
BITMAP
F9F0
F9F0
F9F0
F9F0
ENDCHAR

STARTCHAR char171
ENCODING 171
SWIDTH 3 0
DWIDTH 11 0
BBX 9 11 1 1
BITMAP
0880
1980
7F80
FF80
FF00
EE00
FF00
FF80
7F80
3300
1100
ENDCHAR

STARTCHAR char172
ENCODING 172
SWIDTH 28 0
DWIDTH 18 0
BBX 16 7 0 0
BITMAP
FFFF
0003
0003
0003
0003
0003
0003
ENDCHAR

STARTCHAR char174
ENCODING 174
SWIDTH 35 0
DWIDTH 20 0
BBX 18 16 0 0
BITMAP
03F000
0C0C00
100200
27F100
631980
431880
C338C0
C3C0C0
C360C0
C370C0
4330C0
631980
279D00
100200
0C0C00
03F800
ENDCHAR

STARTCHAR char176
ENCODING 176
SWIDTH 28 0
DWIDTH 8 0
BBX 9 8 -2 9
BITMAP
1C00
2200
4300
C180
C180
4100
2200
1C00
ENDCHAR

STARTCHAR char177
ENCODING 177
SWIDTH 13 0
DWIDTH 14 0
BBX 13 16 0 0
BITMAP
0600
0600
0600
0600
0600
0600
FFF8
0600
0600
0600
0600
0600
0600
0000
0000
FFF8
ENDCHAR

STARTCHAR char179
ENCODING 179
SWIDTH 16 0
DWIDTH 25 0
BBX 0 0 0 0
BITMAP
ENDCHAR

STARTCHAR char180
ENCODING 180
SWIDTH 0 0
DWIDTH 0 0
BBX 7 4 -2 14
BITMAP
7C
7C
F8
F0
ENDCHAR

STARTCHAR char182
ENCODING 182
SWIDTH 28 0
DWIDTH 18 0
BBX 11 22 2 -4
BITMAP
1FE0
7860
7860
F860
F860
F860
F860
F860
7860
3860
0860
0860
0860
0860
0860
0860
0860
0860
0860
0860
0860
0860
ENDCHAR

STARTCHAR char183
ENCODING 183
SWIDTH 14 0
DWIDTH 4 0
BBX 5 4 0 5
BITMAP
70
F8
F8
70
ENDCHAR

STARTCHAR char184
ENCODING 184
SWIDTH 0 0
DWIDTH 0 0
BBX 5 6 -2 -5
BITMAP
F8
F8
F8
F8
78
F0
ENDCHAR

STARTCHAR char186
ENCODING 186
SWIDTH 0 0
DWIDTH 0 0
BBX 10 4 -5 19
BITMAP
39C0
7FC0
FF80
E700
ENDCHAR

STARTCHAR char187
ENCODING 187
SWIDTH 3 0
DWIDTH 11 0
BBX 9 11 1 1
BITMAP
4400
6600
FF00
FF80
7F80
1980
7F80
FF80
FF00
EE00
8800
ENDCHAR

STARTCHAR char189
ENCODING 189
SWIDTH 16 0
DWIDTH 25 0
BBX 0 0 0 0
BITMAP
ENDCHAR

STARTCHAR char191
ENCODING 191
SWIDTH 21 0
DWIDTH 16 0
BBX 14 18 0 0
BITMAP
07C0
07C0
07C0
07C0
07C0
0000
0000
07C0
0FC0
3F80
7F80
FE00
FC7C
FCFC
FFF8
7FF8
3FE0
0FC0
ENDCHAR

STARTCHAR char192
ENCODING 192
SWIDTH 31 0
DWIDTH 19 0
BBX 19 23 -1 0
BITMAP
07C000
03C000
03E000
01E000
000000
01F800
01F800
03F800
03FC00
07FC00
07FC00
07FE00
0FBE00
0FBE00
1F9F00
1F1F00
1F1F00
3FFF80
3FFF80
3FFFC0
7FFFC0
7E07C0
7C07E0
ENDCHAR

STARTCHAR char193
ENCODING 193
SWIDTH 31 0
DWIDTH 19 0
BBX 19 23 -1 0
BITMAP
00F800
00F800
01F000
01E000
000000
01F800
01F800
03F800
03FC00
07FC00
07FC00
07FE00
0FBE00
0FBE00
1F9F00
1F1F00
1F1F00
3FFF80
3FFF80
3FFFC0
7FFFC0
7E07C0
7C07E0
ENDCHAR

STARTCHAR char194
ENCODING 194
SWIDTH 31 0
DWIDTH 19 0
BBX 19 23 -1 0
BITMAP
03F000
07F000
07F800
0F3C00
000000
01F800
01F800
03F800
03FC00
07FC00
07FC00
07FE00
0FBE00
0FBE00
1F9F00
1F1F00
1F1F00
3FFF80
3FFF80
3FFFC0
7FFFC0
7E07C0
7C07E0
ENDCHAR

STARTCHAR char195
ENCODING 195
SWIDTH 31 0
DWIDTH 19 0
BBX 19 23 -1 0
BITMAP
039C00
07FC00
07F800
0E7000
000000
01F800
01F800
03F800
03FC00
07FC00
07FC00
07FE00
0FBE00
0FBE00
1F9F00
1F1F00
1F1F00
3FFF80
3FFF80
3FFFC0
7FFFC0
7E07C0
7C07E0
ENDCHAR

STARTCHAR char196
ENCODING 196
SWIDTH 31 0
DWIDTH 19 0
BBX 19 23 -1 0
BITMAP
003E00
0FBE00
0FBE00
0FBE00
000000
01F000
01F000
03F800
03F800
03FC00
07FC00
07FC00
0FBE00
0FBE00
0FBE00
1FBF00
1F1F00
3FFF80
3FFF80
3FFF80
7FFFC0
7E0FC0
7C0FE0
ENDCHAR

STARTCHAR char197
ENCODING 197
SWIDTH 31 0
DWIDTH 19 0
BBX 19 24 -1 0
BITMAP
00F000
01F800
01B800
019800
01F800
00F000
01F800
01F800
03F800
03FC00
07FC00
07FC00
07FE00
0FBE00
0FBE00
1F9F00
1F9F00
1F1F00
3FFF80
3FFF80
3FFFC0
7FFFC0
7E07C0
7C07E0
ENDCHAR

STARTCHAR char198
ENCODING 198
SWIDTH 24 0
DWIDTH 27 0
BBX 25 18 -1 0
BITMAP
03FFFF00
03FFFF00
07FFFF00
07FFFF00
07DFFF00
0F9F0000
0F9F0000
0F9FFF00
1F9FFF00
1F1FFF00
1F1FFF00
3F1F0000
3FFF0000
3FFF0000
7FFFFF80
7FFFFF80
7C1FFF80
FC1FFF80
ENDCHAR

STARTCHAR char199
ENCODING 199
SWIDTH 35 0
DWIDTH 20 0
BBX 17 23 1 -5
BITMAP
03E000
0FF800
1FFC00
3FFE00
7E3F00
7C1F00
FC1F00
F80000
F80000
F80000
F80000
F81F80
7C1F00
7E3F00
7FFF00
3FFE00
1FFC00
0FF000
07C000
07C000
01C000
03C000
078000
ENDCHAR

STARTCHAR char200
ENCODING 200
SWIDTH 28 0
DWIDTH 18 0
BBX 16 23 1 0
BITMAP
1F00
1F00
0F80
0780
0000
FFFE
FFFE
FFFE
FFFE
FC00
FC00
FC00
FFFC
FFFC
FFFC
FFFC
F800
F800
FFFF
FFFF
FFFF
FFFF
FFFF
ENDCHAR

STARTCHAR char201
ENCODING 201
SWIDTH 28 0
DWIDTH 18 0
BBX 16 23 1 0
BITMAP
03E0
07C0
07C0
0780
0000
FFFE
FFFE
FFFE
FFFE
FC00
FC00
FC00
FFFC
FFFC
FFFC
FFFC
F800
F800
FFFF
FFFF
FFFF
FFFF
FFFF
ENDCHAR

STARTCHAR char202
ENCODING 202
SWIDTH 28 0
DWIDTH 18 0
BBX 16 23 1 0
BITMAP
0FC0
1FC0
3FE0
3CF0
0000
FFFE
FFFE
FFFE
FFFE
FC00
FC00
FC00
FFFC
FFFC
FFFC
FFFC
F800
F800
FFFF
FFFF
FFFF
FFFF
FFFF
ENDCHAR

STARTCHAR char203
ENCODING 203
SWIDTH 28 0
DWIDTH 18 0
BBX 16 23 1 0
BITMAP
7CF8
7CF8
7CF8
7CF8
0000
FFFE
FFFE
FFFE
FFFE
F800
F800
F800
FFFC
FFFC
FFFC
FFFC
F800
F800
FFFF
FFFF
FFFF
FFFF
FFFF
ENDCHAR

STARTCHAR char204
ENCODING 204
SWIDTH 28 0
DWIDTH 8 0
BBX 8 23 -1 0
BITMAP
FC
7C
3C
1E
00
1F
1F
1F
1F
1F
1F
1F
1F
1F
1F
1F
1F
1F
1F
1F
1F
1F
1F
ENDCHAR

STARTCHAR char205
ENCODING 205
SWIDTH 28 0
DWIDTH 8 0
BBX 7 23 1 0
BITMAP
3E
7C
78
78
00
7C
7C
7C
7C
7C
7C
7C
7C
7C
7C
7C
7C
7C
7C
7C
7C
7C
7C
ENDCHAR

STARTCHAR char206
ENCODING 206
SWIDTH 28 0
DWIDTH 8 0
BBX 11 23 -2 0
BITMAP
1F00
3F80
7FC0
F9C0
0000
0F80
0F80
0F80
0F80
0F80
0F80
0F80
0F80
0F80
0F80
0F80
0F80
0F80
0F80
0F80
0F80
0F80
0F80
ENDCHAR

STARTCHAR char207
ENCODING 207
SWIDTH 28 0
DWIDTH 8 0
BBX 11 23 -2 0
BITMAP
FBE0
FBE0
FBE0
FBE0
0000
0F80
0F80
0F80
0F80
0F80
0F80
0F80
0F80
0F80
0F80
0F80
0F80
0F80
0F80
0F80
0F80
1F80
1F80
ENDCHAR

STARTCHAR char209
ENCODING 209
SWIDTH 35 0
DWIDTH 20 0
BBX 16 23 1 0
BITMAP
0F70
1FF0
1FF0
1CE0
0000
F81F
FC1F
FC1F
FE1F
FF1F
FF1F
FF9F
FFDF
FFDF
FBFF
FBFF
F9FF
F9FF
F8FF
F87F
F87F
F83F
F81F
ENDCHAR

STARTCHAR char210
ENCODING 210
SWIDTH 2 0
DWIDTH 21 0
BBX 17 23 1 0
BITMAP
0F8000
0F8000
07C000
03C000
000000
07F000
0FF800
1FFC00
3FFE00
7E3F00
7C1F00
F80F80
F80F80
F80F80
F80F80
F80F80
F80F80
7C1F00
7E3F00
3FFE00
1FFC00
0FF800
07E000
ENDCHAR

STARTCHAR char211
ENCODING 211
SWIDTH 2 0
DWIDTH 21 0
BBX 17 23 1 0
BITMAP
01F000
03E000
03C000
03C000
000000
07F000
0FF800
1FFC00
3FFE00
7E3F00
7C1F00
F80F80
F80F80
F80F80
F80F80
F80F80
F80F80
7C1F00
7E3F00
3FFE00
1FFC00
0FF800
07E000
ENDCHAR

STARTCHAR char212
ENCODING 212
SWIDTH 2 0
DWIDTH 21 0
BBX 17 23 1 0
BITMAP
07E000
07E000
0FF000
1EF000
000000
07F000
0FF800
1FFC00
3FFE00
7E3F00
7C1F00
F80F80
F80F80
F80F80
F80F80
F80F80
F80F80
7C1F00
7E3F00
3FFE00
1FFC00
0FF800
07E000
ENDCHAR

STARTCHAR char213
ENCODING 213
SWIDTH 2 0
DWIDTH 21 0
BBX 17 23 1 0
BITMAP
073000
0FF000
0FF000
0CE000
000000
07F000
0FF800
1FFC00
3FFE00
7E3F00
7C1F00
F80F80
F80F80
F80F80
F80F80
F80F80
F80F80
7C1F00
7E3F00
3FFE00
1FFC00
0FF800
07E000
ENDCHAR

STARTCHAR char214
ENCODING 214
SWIDTH 2 0
DWIDTH 21 0
BBX 19 23 0 0
BITMAP
0FBE00
0FBE00
0FBE00
0FBE00
000000
03F800
0FFE00
1FFF00
3FFF80
7F1F80
7E0FC0
7E0FC0
FC07C0
FC07C0
FC07E0
FC07C0
7E07C0
7E0FC0
7F1F80
3FFF80
1FFF00
0FFE00
03F800
ENDCHAR

STARTCHAR char216
ENCODING 216
SWIDTH 2 0
DWIDTH 21 0
BBX 18 20 0 -1
BITMAP
000080
01F9C0
07FF80
0FFF00
1FFF00
3F1F80
3E1F80
7C3FC0
7C3FC0
7C77C0
7CE7C0
7DC7C0
7F87C0
3F0F80
3F1F80
1FFF00
1FFE00
3FFC00
71F800
600000
ENDCHAR

STARTCHAR char217
ENCODING 217
SWIDTH 35 0
DWIDTH 20 0
BBX 16 23 1 0
BITMAP
1F80
0F80
0780
0380
0000
F81F
F81F
F81F
F81F
F81F
F81F
F81F
F81F
F81F
F81F
F81F
F81F
F83F
FC3F
7FFE
7FFE
3FFC
07E0
ENDCHAR

STARTCHAR char218
ENCODING 218
SWIDTH 35 0
DWIDTH 20 0
BBX 16 23 1 0
BITMAP
03F0
03E0
03C0
0380
0000
F81F
F81F
F81F
F81F
F81F
F81F
F81F
F81F
F81F
F81F
F81F
F81F
F83F
FC3F
7FFE
7FFE
3FFC
07E0
ENDCHAR

STARTCHAR char219
ENCODING 219
SWIDTH 35 0
DWIDTH 20 0
BBX 16 23 1 0
BITMAP
0FC0
0FE0
1EF0
3EF0
0000
F81F
F81F
F81F
F81F
F81F
F81F
F81F
F81F
F81F
F81F
F81F
F81F
F83F
FC3F
7FFE
7FFE
3FFC
07E0
ENDCHAR

STARTCHAR char220
ENCODING 220
SWIDTH 35 0
DWIDTH 20 0
BBX 16 23 1 0
BITMAP
1E78
1E78
1E78
1E78
0000
F81F
F81F
F81F
F81F
F81F
F81F
F81F
F81F
F81F
F81F
F81F
F81F
F83F
FC3F
7FFE
7FFE
3FFC
07E0
ENDCHAR

STARTCHAR char222
ENCODING 222
SWIDTH 16 0
DWIDTH 25 0
BBX 0 0 0 0
BITMAP
ENDCHAR

STARTCHAR char223
ENCODING 223
SWIDTH 24 0
DWIDTH 17 0
BBX 14 18 1 0
BITMAP
0FC0
3FE0
7FF0
7FF8
F8F8
F8F8
F8F8
FBF0
FBF0
FBF8
F8FC
F87C
F87C
F87C
FBFC
FBF8
FBF0
FBE0
ENDCHAR

STARTCHAR char224
ENCODING 224
SWIDTH 21 0
DWIDTH 16 0
BBX 14 18 0 0
BITMAP
3F00
1F00
0F80
0780
0000
0FE0
3FF8
7FF8
7C7C
7C7C
07FC
3FFC
7F7C
FC7C
FF7C
FFFC
7FFC
3E7C
ENDCHAR

STARTCHAR char225
ENCODING 225
SWIDTH 21 0
DWIDTH 16 0
BBX 14 18 0 0
BITMAP
03E0
07E0
07C0
0780
0000
0FE0
3FF8
7FF8
7C7C
7C7C
07FC
3FFC
7F7C
FC7C
FF7C
FFFC
7FFC
3E7C
ENDCHAR

STARTCHAR char226
ENCODING 226
SWIDTH 21 0
DWIDTH 16 0
BBX 14 18 0 0
BITMAP
0F80
0FC0
1FE0
3CF0
0000
0FE0
3FF8
7FF8
7C7C
7C7C
07FC
3FFC
7F7C
FC7C
FF7C
FFFC
7FFC
3E7C
ENDCHAR

STARTCHAR char227
ENCODING 227
SWIDTH 21 0
DWIDTH 16 0
BBX 14 18 0 0
BITMAP
1E60
1FE0
3FE0
39C0
0000
0FE0
3FF8
7FF8
7C7C
7C7C
07FC
3FFC
7F7C
FC7C
FF7C
FFFC
7FFC
3E7C
ENDCHAR

STARTCHAR char228
ENCODING 228
SWIDTH 21 0
DWIDTH 16 0
BBX 14 18 0 0
BITMAP
3EF8
3EF8
3EF8
3EF8
0000
0FE0
1FF0
3FF8
7CFC
7C7C
07FC
3FFC
7F7C
7C7C
FFFC
FFFC
7FFC
3E7C
ENDCHAR

STARTCHAR char229
ENCODING 229
SWIDTH 21 0
DWIDTH 16 0
BBX 14 19 0 0
BITMAP
0380
07C0
06C0
06C0
07C0
0380
0FE0
3FF8
3FF8
7C7C
787C
03FC
3FFC
7F7C
FC7C
FF7C
FFFC
7FFC
3E7C
ENDCHAR

STARTCHAR char230
ENCODING 230
SWIDTH 16 0
DWIDTH 25 0
BBX 22 13 0 0
BITMAP
0FC7C0
3FFFF0
7FFFF8
7FFFF8
78F87C
0FFFFC
3FFFFC
7FFFFC
F87800
F8FF7C
FFFFF8
7FDFF0
3F87C0
ENDCHAR

STARTCHAR char231
ENCODING 231
SWIDTH 21 0
DWIDTH 16 0
BBX 14 18 0 -5
BITMAP
07C0
1FF0
3FF8
7FFC
7C7C
F800
F800
F800
FC7C
7CFC
7FF8
3FF8
1FE0
0F80
0F80
0380
0780
0F00
ENDCHAR

STARTCHAR char232
ENCODING 232
SWIDTH 21 0
DWIDTH 16 0
BBX 15 18 0 0
BITMAP
3F00
1F00
0F80
0780
0000
07C0
1FF0
3FF8
7FFC
787C
FFFC
FFFE
FFFE
7800
7FFC
3FFC
1FF8
0FE0
ENDCHAR

STARTCHAR char233
ENCODING 233
SWIDTH 21 0
DWIDTH 16 0
BBX 15 18 0 0
BITMAP
03E0
03E0
07C0
0780
0000
07C0
1FF0
3FF8
7FFC
787C
FFFC
FFFE
FFFE
7800
7FFC
3FFC
1FF8
0FE0
ENDCHAR

STARTCHAR char234
ENCODING 234
SWIDTH 21 0
DWIDTH 16 0
BBX 15 18 0 0
BITMAP
0F80
0FC0
1FE0
3CE0
0000
07C0
1FF0
3FF8
7FFC
787C
FFFC
FFFE
FFFE
7800
7FFC
3FFC
1FF8
0FE0
ENDCHAR

STARTCHAR char235
ENCODING 235
SWIDTH 21 0
DWIDTH 16 0
BBX 15 18 0 0
BITMAP
7CF8
7CF8
7CF8
7CF8
0000
0FE0
3FF8
7FFC
7FFC
F87C
FFFC
FFFE
FFFE
7800
7FFC
7FFC
3FF8
0FE0
ENDCHAR

STARTCHAR char236
ENCODING 236
SWIDTH 28 0
DWIDTH 8 0
BBX 7 18 -1 0
BITMAP
F8
78
7C
3C
00
3E
3E
3E
3E
3E
3E
3E
3E
3E
3E
3E
3E
3E
ENDCHAR

STARTCHAR char237
ENCODING 237
SWIDTH 28 0
DWIDTH 8 0
BBX 7 18 1 0
BITMAP
3E
7C
7C
F8
00
7C
7C
7C
7C
7C
7C
7C
7C
7C
7C
7C
7C
7C
ENDCHAR

STARTCHAR char238
ENCODING 238
SWIDTH 28 0
DWIDTH 8 0
BBX 10 18 -2 0
BITMAP
1E00
3F00
7F80
73C0
0000
1F00
1F00
1F00
1F00
1F00
1F00
1F00
1F00
1F00
1F00
1F00
1F00
1F00
ENDCHAR

STARTCHAR char239
ENCODING 239
SWIDTH 28 0
DWIDTH 8 0
BBX 11 18 -2 0
BITMAP
FBE0
FBE0
FBE0
FBE0
0000
0F00
0F00
0F00
0F00
0F00
0F00
0F00
0F00
0F00
0F00
0F00
0F00
0F00
ENDCHAR

STARTCHAR char241
ENCODING 241
SWIDTH 24 0
DWIDTH 17 0
BBX 14 18 1 0
BITMAP
1CE0
3FE0
3FE0
73C0
0000
F9E0
FFF8
FFF8
FFFC
FCFC
F87C
F87C
F87C
F87C
F87C
F87C
F87C
F87C
ENDCHAR

STARTCHAR char242
ENCODING 242
SWIDTH 21 0
DWIDTH 16 0
BBX 15 18 0 0
BITMAP
3F00
1F00
0F80
0780
0000
0FE0
1FF0
7FFC
7FFC
FC7E
F83E
F83E
F83E
FC7E
7FFC
7FFC
1FF0
07E0
ENDCHAR

STARTCHAR char243
ENCODING 243
SWIDTH 21 0
DWIDTH 16 0
BBX 15 18 0 0
BITMAP
03F0
07E0
07C0
0780
0000
0FE0
1FF0
7FFC
7FFC
FC7E
F83E
F83E
F83E
FC7E
7FFC
7FFC
1FF0
07E0
ENDCHAR

STARTCHAR char244
ENCODING 244
SWIDTH 21 0
DWIDTH 16 0
BBX 15 18 0 0
BITMAP
0F80
1FC0
1FE0
3CF0
0000
0FE0
1FF0
7FFC
7FFC
FC7E
F83E
F83E
F83E
FC7E
7FFC
7FFC
1FF0
07E0
ENDCHAR

STARTCHAR char245
ENCODING 245
SWIDTH 21 0
DWIDTH 16 0
BBX 15 18 0 0
BITMAP
1E70
3FF0
3FE0
39C0
0000
0FE0
1FF0
7FFC
7FFC
FC7E
F83E
F83E
F83E
FC7E
7FFC
7FFC
1FF0
07E0
ENDCHAR

STARTCHAR char246
ENCODING 246
SWIDTH 21 0
DWIDTH 16 0
BBX 15 18 0 0
BITMAP
3EF8
3EF8
3EF8
3EF8
0000
07E0
1FF0
7FFC
7FFC
FC7E
F83E
F83E
F83E
FC7E
7FFC
7FFC
1FF0
0FE0
ENDCHAR

STARTCHAR char247
ENCODING 247
SWIDTH 13 0
DWIDTH 14 0
BBX 13 11 0 1
BITMAP
0700
0700
0700
0700
0000
FFF8
0000
0700
0700
0700
0700
ENDCHAR

STARTCHAR char248
ENCODING 248
SWIDTH 21 0
DWIDTH 16 0
BBX 15 15 0 -1
BITMAP
0004
0FCC
1FFC
3FFC
7FFC
FCFE
F9FE
FBBE
FF3E
FE7E
7DFC
7FFC
7FF0
67E0
2000
ENDCHAR

STARTCHAR char249
ENCODING 249
SWIDTH 24 0
DWIDTH 17 0
BBX 14 18 1 0
BITMAP
3E00
3F00
1F00
0F00
0000
F87C
F87C
F87C
F87C
F87C
F87C
F87C
F87C
F8FC
FFFC
7FFC
7FFC
1E7C
ENDCHAR

STARTCHAR char250
ENCODING 250
SWIDTH 24 0
DWIDTH 17 0
BBX 14 18 1 0
BITMAP
07E0
07C0
0F80
0F00
0000
F87C
F87C
F87C
F87C
F87C
F87C
F87C
F87C
F8FC
FFFC
7FFC
7FFC
1E7C
ENDCHAR

STARTCHAR char251
ENCODING 251
SWIDTH 24 0
DWIDTH 17 0
BBX 14 18 1 0
BITMAP
0F80
1FC0
3FC0
79E0
0000
F87C
F87C
F87C
F87C
F87C
F87C
F87C
F87C
F8FC
FFFC
7FFC
7FFC
1E7C
ENDCHAR

STARTCHAR char252
ENCODING 252
SWIDTH 24 0
DWIDTH 17 0
BBX 13 18 1 0
BITMAP
7CF0
7CF0
7CF0
7CF0
0000
F8F8
F8F8
F8F8
F8F8
F8F8
F8F8
F8F8
F8F8
F8F8
FFF8
7FF8
7FF8
3EF8
ENDCHAR

STARTCHAR char255
ENCODING 255
SWIDTH 17 0
DWIDTH 15 0
BBX 14 22 0 -4
BITMAP
7DF0
7DF0
7DF0
7DF0
0000
F87C
FCFC
FCF8
7CF8
7CF8
3CF0
3FF0
3FF0
1FE0
1FE0
0FE0
0FC0
0FC0
7F80
7F80
7F00
7E00
ENDCHAR
ENDFONT
